<mxfile host="app.diagrams.net" modified="2024-03-23T07:31:45.839Z" agent="Mozilla/5.0 (Windows NT 10.0; Win64; x64) AppleWebKit/537.36 (KHTML, like Gecko) Chrome/120.0.0.0 YaBrowser/24.1.0.0 Safari/537.36" etag="hANvratj3q4T9TrmwwWh" version="24.0.8" type="google">
  <diagram name="Page-1" id="13e1069c-82ec-6db2-03f1-153e76fe0fe0">
    <mxGraphModel grid="1" page="1" gridSize="10" guides="1" tooltips="1" connect="1" arrows="1" fold="1" pageScale="1" pageWidth="1100" pageHeight="850" background="none" math="0" shadow="0">
      <root>
        <mxCell id="0" />
        <mxCell id="1" parent="0" />
        <mxCell id="7baba1c4bc27f4b0-2" value=":GUI" style="shape=umlLifeline;perimeter=lifelinePerimeter;whiteSpace=wrap;html=1;container=1;collapsible=0;recursiveResize=0;outlineConnect=0;rounded=1;shadow=0;comic=0;labelBackgroundColor=none;strokeWidth=1;fontFamily=Verdana;fontSize=12;align=center;" vertex="1" parent="1">
          <mxGeometry x="240" y="80" width="100" height="1040" as="geometry" />
        </mxCell>
        <mxCell id="wwS38SLD4BhZDNM-s97V-25" value="" style="html=1;points=[];perimeter=orthogonalPerimeter;" vertex="1" parent="7baba1c4bc27f4b0-2">
          <mxGeometry x="45" y="60" width="10" height="900" as="geometry" />
        </mxCell>
        <mxCell id="8Y1q4reIzMutk8Cuu25G-8" value="" style="endArrow=block;dashed=1;endFill=0;endSize=12;html=1;rounded=0;" edge="1" parent="7baba1c4bc27f4b0-2">
          <mxGeometry width="160" relative="1" as="geometry">
            <mxPoint x="125" y="150.00000000000003" as="sourcePoint" />
            <mxPoint x="55" y="150.00000000000003" as="targetPoint" />
          </mxGeometry>
        </mxCell>
        <mxCell id="f_-WnvcZrup8OcyQ_z7--2" value="" style="html=1;points=[[0,0,0,0,5],[0,1,0,0,-5],[1,0,0,0,5],[1,1,0,0,-5]];perimeter=orthogonalPerimeter;outlineConnect=0;targetShapes=umlLifeline;portConstraint=eastwest;newEdgeStyle={&quot;curved&quot;:0,&quot;rounded&quot;:0};" vertex="1" parent="7baba1c4bc27f4b0-2">
          <mxGeometry x="50" y="750" width="10" height="40" as="geometry" />
        </mxCell>
        <mxCell id="f_-WnvcZrup8OcyQ_z7--3" value="Удаление локального &lt;br&gt;токена сессии" style="html=1;align=left;spacingLeft=2;endArrow=block;rounded=0;edgeStyle=orthogonalEdgeStyle;curved=0;rounded=0;" edge="1" parent="7baba1c4bc27f4b0-2" target="f_-WnvcZrup8OcyQ_z7--2">
          <mxGeometry x="0.0118" relative="1" as="geometry">
            <mxPoint x="55" y="730" as="sourcePoint" />
            <Array as="points">
              <mxPoint x="85" y="760" />
            </Array>
            <mxPoint as="offset" />
          </mxGeometry>
        </mxCell>
        <mxCell id="7baba1c4bc27f4b0-4" value=":API-Gateway" style="shape=umlLifeline;perimeter=lifelinePerimeter;whiteSpace=wrap;html=1;container=1;collapsible=0;recursiveResize=0;outlineConnect=0;rounded=1;shadow=0;comic=0;labelBackgroundColor=none;strokeWidth=1;fontFamily=Verdana;fontSize=12;align=center;" vertex="1" parent="1">
          <mxGeometry x="381" y="80" width="100" height="1040" as="geometry" />
        </mxCell>
        <mxCell id="WZIY-89Z3sl6ZoVQuBjr-1" value="" style="html=1;points=[[0,0,0,0,5],[0,1,0,0,-5],[1,0,0,0,5],[1,1,0,0,-5]];perimeter=orthogonalPerimeter;outlineConnect=0;targetShapes=umlLifeline;portConstraint=eastwest;newEdgeStyle={&quot;curved&quot;:0,&quot;rounded&quot;:0};" vertex="1" parent="7baba1c4bc27f4b0-4">
          <mxGeometry x="45" y="404" width="10" height="139" as="geometry" />
        </mxCell>
        <mxCell id="7baba1c4bc27f4b0-6" value=":&lt;span style=&quot;font-family: Helvetica;&quot;&gt;Authorization&amp;nbsp;&lt;/span&gt;&lt;br style=&quot;font-family: Helvetica;&quot;&gt;&lt;span style=&quot;font-family: Helvetica;&quot;&gt;manager&lt;/span&gt;" style="shape=umlLifeline;perimeter=lifelinePerimeter;whiteSpace=wrap;html=1;container=1;collapsible=0;recursiveResize=0;outlineConnect=0;rounded=1;shadow=0;comic=0;labelBackgroundColor=none;strokeWidth=1;fontFamily=Verdana;fontSize=12;align=center;" vertex="1" parent="1">
          <mxGeometry x="680" y="80" width="100" height="1040" as="geometry" />
        </mxCell>
        <mxCell id="7baba1c4bc27f4b0-7" value=":СУБД" style="shape=umlLifeline;perimeter=lifelinePerimeter;whiteSpace=wrap;html=1;container=1;collapsible=0;recursiveResize=0;outlineConnect=0;rounded=1;shadow=0;comic=0;labelBackgroundColor=none;strokeWidth=1;fontFamily=Verdana;fontSize=12;align=center;" vertex="1" parent="1">
          <mxGeometry x="820" y="80" width="100" height="1040" as="geometry" />
        </mxCell>
        <mxCell id="wwS38SLD4BhZDNM-s97V-44" value="" style="html=1;points=[];perimeter=orthogonalPerimeter;" vertex="1" parent="7baba1c4bc27f4b0-7">
          <mxGeometry x="-95" y="570" width="10" height="80" as="geometry" />
        </mxCell>
        <mxCell id="wwS38SLD4BhZDNM-s97V-50" value="" style="html=1;points=[];perimeter=orthogonalPerimeter;" vertex="1" parent="7baba1c4bc27f4b0-7">
          <mxGeometry x="45" y="585" width="10" height="50" as="geometry" />
        </mxCell>
        <mxCell id="wwS38SLD4BhZDNM-s97V-45" value="Передача токена &lt;br&gt;авторизации&lt;br&gt;для удаления" style="html=1;verticalAlign=bottom;endArrow=block;entryX=0;entryY=0;rounded=0;" edge="1" parent="7baba1c4bc27f4b0-7" target="wwS38SLD4BhZDNM-s97V-44">
          <mxGeometry relative="1" as="geometry">
            <mxPoint x="-244" y="570" as="sourcePoint" />
          </mxGeometry>
        </mxCell>
        <mxCell id="wwS38SLD4BhZDNM-s97V-46" value="Результат поиска" style="html=1;verticalAlign=bottom;endArrow=open;dashed=1;endSize=8;exitX=0;exitY=0.95;rounded=0;" edge="1" parent="7baba1c4bc27f4b0-7" source="wwS38SLD4BhZDNM-s97V-44">
          <mxGeometry relative="1" as="geometry">
            <mxPoint x="-244" y="646" as="targetPoint" />
          </mxGeometry>
        </mxCell>
        <mxCell id="wwS38SLD4BhZDNM-s97V-51" value="Запрос к БД" style="html=1;verticalAlign=bottom;endArrow=block;entryX=0;entryY=0;rounded=0;" edge="1" parent="7baba1c4bc27f4b0-7" source="wwS38SLD4BhZDNM-s97V-44" target="wwS38SLD4BhZDNM-s97V-50">
          <mxGeometry relative="1" as="geometry">
            <mxPoint x="-6" y="780" as="sourcePoint" />
          </mxGeometry>
        </mxCell>
        <mxCell id="wwS38SLD4BhZDNM-s97V-52" value="Результат запроса" style="html=1;verticalAlign=bottom;endArrow=open;dashed=1;endSize=8;exitX=0;exitY=0.95;rounded=0;" edge="1" parent="7baba1c4bc27f4b0-7" source="wwS38SLD4BhZDNM-s97V-50" target="wwS38SLD4BhZDNM-s97V-44">
          <mxGeometry relative="1" as="geometry">
            <mxPoint x="-6" y="856" as="targetPoint" />
          </mxGeometry>
        </mxCell>
        <mxCell id="7baba1c4bc27f4b0-11" value="Нажать кнопку &lt;br&gt;&quot;Выход из системы&quot;" style="html=1;verticalAlign=bottom;endArrow=block;labelBackgroundColor=none;fontFamily=Verdana;fontSize=12;edgeStyle=elbowEdgeStyle;elbow=vertical;entryX=-0.374;entryY=0.025;entryDx=0;entryDy=0;entryPerimeter=0;" edge="1" parent="1">
          <mxGeometry relative="1" as="geometry">
            <mxPoint x="155" y="348" as="sourcePoint" />
            <mxPoint x="281.25999999999976" y="348.5" as="targetPoint" />
          </mxGeometry>
        </mxCell>
        <mxCell id="wwS38SLD4BhZDNM-s97V-5" value="" style="shape=umlLifeline;participant=umlActor;perimeter=lifelinePerimeter;whiteSpace=wrap;html=1;container=1;collapsible=0;recursiveResize=0;verticalAlign=top;spacingTop=36;outlineConnect=0;" vertex="1" parent="1">
          <mxGeometry x="140" y="80" width="20" height="1040" as="geometry" />
        </mxCell>
        <mxCell id="wwS38SLD4BhZDNM-s97V-6" value="" style="html=1;points=[];perimeter=orthogonalPerimeter;" vertex="1" parent="wwS38SLD4BhZDNM-s97V-5">
          <mxGeometry x="5" y="60" width="10" height="900" as="geometry" />
        </mxCell>
        <mxCell id="wwS38SLD4BhZDNM-s97V-38" value="HTTP запрос API&lt;div&gt;&quot;Выйти из системы&quot;&lt;/div&gt;" style="html=1;verticalAlign=bottom;endArrow=block;entryX=0;entryY=0;rounded=0;entryDx=0;entryDy=5;entryPerimeter=0;" edge="1" parent="1" target="WZIY-89Z3sl6ZoVQuBjr-1">
          <mxGeometry relative="1" as="geometry">
            <mxPoint x="295" y="489" as="sourcePoint" />
          </mxGeometry>
        </mxCell>
        <mxCell id="g-z1oCNefS3xPDmUXuDe-1" value=":&lt;span style=&quot;font-family: Helvetica;&quot;&gt;Authorization -Handler&lt;/span&gt;" style="shape=umlLifeline;perimeter=lifelinePerimeter;whiteSpace=wrap;html=1;container=1;collapsible=0;recursiveResize=0;outlineConnect=0;rounded=1;shadow=0;comic=0;labelBackgroundColor=none;strokeWidth=1;fontFamily=Verdana;fontSize=12;align=center;" vertex="1" parent="1">
          <mxGeometry x="521" y="80" width="100" height="1040" as="geometry" />
        </mxCell>
        <mxCell id="wwS38SLD4BhZDNM-s97V-37" value="" style="html=1;points=[];perimeter=orthogonalPerimeter;" vertex="1" parent="g-z1oCNefS3xPDmUXuDe-1">
          <mxGeometry x="45" y="508" width="10" height="222" as="geometry" />
        </mxCell>
        <mxCell id="8Y1q4reIzMutk8Cuu25G-1" value="" style="group" connectable="0" vertex="1" parent="g-z1oCNefS3xPDmUXuDe-1">
          <mxGeometry x="-161" y="80" width="250" height="180" as="geometry" />
        </mxCell>
        <mxCell id="8Y1q4reIzMutk8Cuu25G-2" value="Просмотр своего аккаунта" style="text;html=1;strokeColor=none;fillColor=none;align=center;verticalAlign=middle;whiteSpace=wrap;rounded=0;" vertex="1" parent="8Y1q4reIzMutk8Cuu25G-1">
          <mxGeometry x="69.35483870967742" y="162" width="96.7741935483871" height="18" as="geometry" />
        </mxCell>
        <mxCell id="8Y1q4reIzMutk8Cuu25G-3" value="" style="rounded=0;whiteSpace=wrap;html=1;" vertex="1" parent="8Y1q4reIzMutk8Cuu25G-1">
          <mxGeometry width="250" height="156.00000000000003" as="geometry" />
        </mxCell>
        <mxCell id="8Y1q4reIzMutk8Cuu25G-4" value="&lt;font style=&quot;font-size: 10px;&quot;&gt;Выход из системы&lt;/font&gt;" style="rounded=1;whiteSpace=wrap;html=1;" vertex="1" parent="8Y1q4reIzMutk8Cuu25G-1">
          <mxGeometry x="150" y="4.8" width="96.24" height="15.9" as="geometry" />
        </mxCell>
        <mxCell id="8Y1q4reIzMutk8Cuu25G-5" style="edgeStyle=orthogonalEdgeStyle;rounded=0;orthogonalLoop=1;jettySize=auto;html=1;exitX=0.5;exitY=1;exitDx=0;exitDy=0;" edge="1" parent="8Y1q4reIzMutk8Cuu25G-1">
          <mxGeometry relative="1" as="geometry">
            <mxPoint x="114.78494623655916" y="83.99999999999999" as="sourcePoint" />
            <mxPoint x="114.78494623655916" y="83.99999999999999" as="targetPoint" />
          </mxGeometry>
        </mxCell>
        <mxCell id="8Y1q4reIzMutk8Cuu25G-6" value="" style="rounded=0;whiteSpace=wrap;html=1;" vertex="1" parent="8Y1q4reIzMutk8Cuu25G-1">
          <mxGeometry x="38.17204301075269" y="30" width="166.12903225806454" height="120" as="geometry" />
        </mxCell>
        <mxCell id="8Y1q4reIzMutk8Cuu25G-7" value="Основная информация" style="rounded=0;whiteSpace=wrap;html=1;" vertex="1" parent="8Y1q4reIzMutk8Cuu25G-1">
          <mxGeometry x="59.40860215053764" y="60" width="123.65591397849464" height="36" as="geometry" />
        </mxCell>
        <mxCell id="wwS38SLD4BhZDNM-s97V-39" value="Результат запроса" style="html=1;verticalAlign=bottom;endArrow=open;dashed=1;endSize=8;exitX=0;exitY=0.95;rounded=0;" edge="1" parent="g-z1oCNefS3xPDmUXuDe-1">
          <mxGeometry relative="1" as="geometry">
            <mxPoint x="-226" y="709.9999999999999" as="targetPoint" />
            <mxPoint x="45" y="709.9999999999999" as="sourcePoint" />
          </mxGeometry>
        </mxCell>
        <mxCell id="g-z1oCNefS3xPDmUXuDe-6" value="Передача запроса &lt;br&gt;удаления токена &lt;br&gt;авторизации" style="html=1;verticalAlign=bottom;endArrow=block;entryX=-0.12;entryY=0.026;rounded=0;entryDx=0;entryDy=0;entryPerimeter=0;" edge="1" parent="1" source="WZIY-89Z3sl6ZoVQuBjr-1">
          <mxGeometry x="-0.0062" relative="1" as="geometry">
            <mxPoint x="460" y="604" as="sourcePoint" />
            <mxPoint x="564.8000000000002" y="603.2140000000004" as="targetPoint" />
            <mxPoint as="offset" />
          </mxGeometry>
        </mxCell>
        <mxCell id="wwS38SLD4BhZDNM-s97V-69" value="Отобразить форму&amp;nbsp;&lt;br&gt;&quot;Стартовая странциа&quot;" style="html=1;verticalAlign=bottom;endArrow=open;dashed=1;endSize=8;rounded=0;exitX=-0.2;exitY=0.854;exitDx=0;exitDy=0;exitPerimeter=0;" edge="1" parent="1">
          <mxGeometry relative="1" as="geometry">
            <mxPoint x="285.00000000000045" y="940" as="sourcePoint" />
            <mxPoint x="157" y="940" as="targetPoint" />
          </mxGeometry>
        </mxCell>
        <mxCell id="8Y1q4reIzMutk8Cuu25G-9" value="" style="group" connectable="0" vertex="1" parent="1">
          <mxGeometry x="362" y="860" width="290" height="170" as="geometry" />
        </mxCell>
        <mxCell id="8Y1q4reIzMutk8Cuu25G-10" value="" style="rounded=0;whiteSpace=wrap;html=1;" vertex="1" parent="8Y1q4reIzMutk8Cuu25G-9">
          <mxGeometry width="278.8572614107884" height="138.125" as="geometry" />
        </mxCell>
        <mxCell id="8Y1q4reIzMutk8Cuu25G-11" value="Стартотвая страница" style="text;html=1;strokeColor=none;fillColor=none;align=center;verticalAlign=middle;whiteSpace=wrap;rounded=0;" vertex="1" parent="8Y1q4reIzMutk8Cuu25G-9">
          <mxGeometry x="85.27925311203306" y="145.828125" width="108.29875518672199" height="15.9375" as="geometry" />
        </mxCell>
        <mxCell id="8Y1q4reIzMutk8Cuu25G-12" value="Вход в систему" style="rounded=1;whiteSpace=wrap;html=1;perimeterSpacing=0;" vertex="1" parent="8Y1q4reIzMutk8Cuu25G-9">
          <mxGeometry x="150.41493775933608" y="85" width="90.850622406639" height="26.5625" as="geometry" />
        </mxCell>
        <mxCell id="8Y1q4reIzMutk8Cuu25G-13" value="Регистрация" style="rounded=1;whiteSpace=wrap;html=1;perimeterSpacing=0;" vertex="1" parent="8Y1q4reIzMutk8Cuu25G-9">
          <mxGeometry x="24.066390041493776" y="85" width="90.850622406639" height="26.5625" as="geometry" />
        </mxCell>
        <mxCell id="8Y1q4reIzMutk8Cuu25G-14" value="" style="endArrow=block;dashed=1;endFill=0;endSize=12;html=1;rounded=0;" edge="1" parent="1">
          <mxGeometry width="160" relative="1" as="geometry">
            <mxPoint x="361" y="979" as="sourcePoint" />
            <mxPoint x="291" y="979" as="targetPoint" />
          </mxGeometry>
        </mxCell>
      </root>
    </mxGraphModel>
  </diagram>
</mxfile>
